<svg height="20" viewBox="0 0 20 20" width="20" xmlns="http://www.w3.org/2000/svg" xmlns:xlink="http://www.w3.org/1999/xlink"><clipPath id="a"><path d="m0 0h20v20h-20z"/></clipPath><g clip-path="url(#a)"><path d="m226.7 874a9.506 9.506 0 0 1 7.1-2.9 10.068 10.068 0 0 1 7.1 2.9 9.506 9.506 0 0 1 2.9 7.1 9.9 9.9 0 0 1 -2.9 7.1 9.506 9.506 0 0 1 -7.1 2.9 9.9 9.9 0 0 1 -7.1-2.9 9.506 9.506 0 0 1 -2.9-7.1 9.732 9.732 0 0 1 2.9-7.1zm12.1 10.6-3.6-3.6 3.6-3.6-1.4-1.4-3.6 3.6-3.6-3.6-1.4 1.4 3.6 3.6-3.6 3.6 1.4 1.4 3.6-3.6 3.6 3.6z" fill="#7ea1ff" transform="translate(-223.8 -871.1)"/></g></svg>